<?xml version="1.0" encoding="utf-8"?>
<!-- Generator: Adobe Illustrator 16.0.0, SVG Export Plug-In . SVG Version: 6.00 Build 0)  -->
<!DOCTYPE svg PUBLIC "-//W3C//DTD SVG 1.1//EN" "http://www.w3.org/Graphics/SVG/1.1/DTD/svg11.dtd">
<svg xmlns="http://www.w3.org/2000/svg" version="1.1" height="85" width="318" preserveAspectRatio="xMinYMin meet" viewBox="0 0 318 85">
<g>
	<g>
		<path fill-rule="evenodd" clip-rule="evenodd" fill="#1C2875" d="M0,83.82c0.311-1.58,0.647-3.156,0.927-4.741
			c2.327-13.16,4.642-26.322,6.964-39.482c0.036-0.204,0.099-0.402,0.167-0.671c0.29,0,0.574,0,0.856,0
			c6.491,0,12.981-0.04,19.471,0.015c3.946,0.033,7.914-0.043,11.789,0.894c5.064,1.225,9.174,3.794,11.546,8.611
			c1.466,2.977,1.918,6.181,1.703,9.474c-0.481,7.323-3.034,13.767-8.349,18.937c-3.845,3.74-8.53,5.875-13.8,6.791
			c-3.337,0.579-6.691,0.83-10.075,0.819C14.132,84.441,7.066,84.452,0,84.449C0,84.239,0,84.03,0,83.82z M9.407,81.137
			c0.162,0.035,0.26,0.078,0.358,0.077c5.286-0.072,10.578,0.001,15.854-0.262c5.973-0.296,10.818-2.855,14.087-8.019
			c3.838-6.06,5.23-12.754,4.688-19.81c-0.414-5.38-4.171-9.412-9.204-10.376c-1.152-0.221-2.334-0.374-3.506-0.397
			c-4.396-0.087-8.792-0.112-13.189-0.149c-0.725-0.006-1.678-0.219-2.112,0.151c-0.438,0.372-0.379,1.346-0.506,2.062
			c-1.824,10.305-3.644,20.61-5.462,30.917C10.075,77.257,9.746,79.184,9.407,81.137z"/>
		<path fill-rule="evenodd" clip-rule="evenodd" fill="#1D2875" d="M219.693,69.604c5.346,3.605,7.802,9.053,10.031,14.793
			c-2.525,0-4.937,0-7.402,0c-0.269-1.025-0.504-2.092-0.826-3.132c-1.202-3.862-3.184-7.197-6.479-9.679
			c-1.194-0.899-2.482-1.492-3.955-1.529c-2.403-0.061-4.809-0.017-7.303-0.017c-0.841,4.756-1.687,9.536-2.54,14.364
			c-2.153,0-4.281,0-6.496,0c1.919-10.876,3.829-21.711,5.746-32.577c0.241-0.019,0.445-0.048,0.648-0.048
			c6.727,0.005,13.454-0.027,20.179,0.046c1.848,0.021,3.708,0.259,5.53,0.577c2.869,0.501,5.004,2.099,5.882,4.924
			c0.907,2.924,0.025,5.528-2.017,7.74c-2.118,2.294-4.896,3.326-7.854,3.974C221.83,69.262,220.805,69.408,219.693,69.604z
			 M204.189,67.591c0.227,0.022,0.354,0.046,0.48,0.046c3.793,0.001,7.586,0.023,11.379-0.008c2.065-0.017,4.049-0.472,5.894-1.43
			c2.25-1.167,3.819-2.886,4.33-5.445c0.581-2.915-0.63-5.181-3.455-6.087c-1.251-0.402-2.606-0.623-3.922-0.651
			c-3.869-0.084-7.742-0.031-11.614-0.029c-0.227,0-0.454,0.022-0.699,0.036C205.784,58.55,204.995,63.026,204.189,67.591z"/>
		<path fill-rule="evenodd" clip-rule="evenodd" fill="#1D2975" d="M318,51.94c-6.607,4.353-13.216,8.705-19.904,13.11
			c5.032,6.439,10.032,12.838,15.109,19.336c-0.313,0.033-0.505,0.07-0.695,0.07c-2.016,0.005-4.031-0.015-6.046,0.015
			c-0.501,0.008-0.8-0.151-1.097-0.556c-3.702-5.039-7.426-10.065-11.144-15.093c-0.199-0.27-0.406-0.532-0.646-0.844
			c-1.831,1.212-3.541,2.531-5.419,3.534c-1.893,1.012-2.725,2.41-2.954,4.521c-0.305,2.798-0.938,5.56-1.438,8.376
			c-2.1,0-4.151,0-6.302,0c1.92-10.885,3.833-21.735,5.747-32.59c2.129,0,4.188,0,6.306,0c-0.997,5.659-1.985,11.267-2.997,17.015
			c0.301-0.175,0.496-0.278,0.679-0.398c8.058-5.318,16.117-10.633,24.161-15.972c0.727-0.482,1.438-0.743,2.322-0.703
			c1.41,0.063,2.824,0.017,4.236,0.017C317.946,51.832,317.974,51.886,318,51.94z"/>
		<path fill-rule="evenodd" clip-rule="evenodd" fill="#1C2875" d="M272.5,84.458c-2.199,0-4.29,0.02-6.38-0.026
			c-0.214-0.006-0.527-0.355-0.611-0.605c-1.073-3.226-2.129-6.455-3.145-9.699c-0.195-0.624-0.459-0.841-1.133-0.836
			c-4.658,0.033-9.316,0.028-13.974,0.004c-0.614-0.003-0.98,0.168-1.319,0.702c-2.103,3.313-4.256,6.594-6.366,9.901
			c-0.276,0.433-0.571,0.581-1.074,0.572c-1.871-0.03-3.742-0.013-5.761-0.013c0.742-1.124,1.397-2.121,2.058-3.116
			c6.405-9.659,12.812-19.315,19.208-28.979c0.27-0.407,0.541-0.61,1.064-0.6c1.883,0.038,3.768,0.032,5.651,0.003
			c0.481-0.007,0.675,0.165,0.824,0.604c3.586,10.489,7.188,20.973,10.784,31.459C272.386,83.999,272.424,84.176,272.5,84.458z
			 M247.916,70.986c4.496,0,8.917,0,13.4,0c-1.407-5.197-2.794-10.317-4.189-15.47C254.048,60.687,251.002,65.801,247.916,70.986z"
			/>
		<path fill-rule="evenodd" clip-rule="evenodd" fill="#1C2875" d="M89.766,84.458c-2.229,0-4.321,0.016-6.411-0.024
			c-0.199-0.004-0.493-0.325-0.57-0.557c-1.086-3.277-2.155-6.561-3.195-9.852c-0.167-0.527-0.38-0.736-0.97-0.732
			c-4.764,0.028-9.528,0.025-14.292,0.002c-0.52-0.003-0.791,0.179-1.059,0.598c-2.128,3.329-4.289,6.638-6.415,9.969
			c-0.288,0.449-0.596,0.621-1.131,0.61c-1.851-0.034-3.703-0.014-5.715-0.014c0.333-0.519,0.59-0.929,0.857-1.332
			c6.784-10.228,13.573-20.451,20.343-30.688c0.329-0.497,0.666-0.689,1.263-0.675c1.779,0.043,3.561,0.045,5.339-0.002
			c0.61-0.015,0.858,0.198,1.047,0.754c2.72,7.997,5.461,15.987,8.2,23.978c0.805,2.351,1.618,4.698,2.425,7.049
			C89.574,83.809,89.649,84.081,89.766,84.458z M78.582,71.016c-1.414-5.218-2.802-10.339-4.199-15.496
			c-3.084,5.178-6.137,10.302-9.23,15.496C69.666,71.016,74.075,71.016,78.582,71.016z"/>
		<path fill-rule="evenodd" clip-rule="evenodd" fill="#1C2875" d="M117.737,84.458c1.161-1.756,2.225-3.367,3.292-4.976
			c5.959-8.985,11.927-17.965,17.864-26.965c0.386-0.585,0.785-0.771,1.456-0.755c1.753,0.045,3.508,0.034,5.262,0.003
			c0.519-0.009,0.778,0.117,0.958,0.648c3.561,10.446,7.145,20.885,10.722,31.325c0.066,0.193,0.111,0.396,0.184,0.661
			c-2.29,0-4.52,0-6.792,0c-1.102-3.398-2.231-6.797-3.288-10.218c-0.222-0.717-0.54-0.896-1.256-0.892
			c-4.659,0.034-9.319,0.028-13.979,0.003c-0.572-0.003-0.885,0.186-1.187,0.66c-2.124,3.332-4.286,6.64-6.415,9.968
			c-0.256,0.399-0.527,0.557-1.006,0.549C121.671,84.442,119.788,84.458,117.737,84.458z M142.131,55.515
			c-3.078,5.17-6.134,10.303-9.226,15.496c4.502,0,8.911,0,13.418,0C144.917,65.813,143.528,60.676,142.131,55.515z"/>
		<path fill-rule="evenodd" clip-rule="evenodd" fill="#1B2774" d="M300.242,40.041c-6.173-0.008-11.168-5.015-11.171-11.198
			c-0.003-6.159,5.016-11.171,11.193-11.181c6.238-0.01,11.213,5.018,11.202,11.321C311.457,35.069,306.402,40.049,300.242,40.041z"
			/>
		<path fill-rule="evenodd" clip-rule="evenodd" fill="#B5131C" d="M281.541,17.725c-0.007,5.735-4.659,10.349-10.43,10.343
			c-5.738-0.006-10.365-4.638-10.393-10.402c-0.026-5.743,4.683-10.444,10.45-10.433C276.943,7.245,281.549,11.903,281.541,17.725z"
			/>
		<path fill-rule="evenodd" clip-rule="evenodd" fill="#1E2A76" d="M161.449,54.245c0.151-0.882,0.278-1.622,0.414-2.412
			c11.212,0,22.398,0,33.68,0c-0.142,0.794-0.281,1.57-0.429,2.397c-1.052,0-2.041,0-3.031,0c-3.245,0-6.49,0.015-9.735-0.013
			c-0.595-0.004-0.847,0.116-0.96,0.769c-1.681,9.662-3.396,19.318-5.103,28.976c-0.022,0.128-0.053,0.255-0.09,0.439
			c-2.154,0-4.308,0-6.529,0c1.771-10.051,3.535-20.059,5.314-30.156C170.455,54.245,166.017,54.245,161.449,54.245z"/>
		<path fill-rule="evenodd" clip-rule="evenodd" fill="#1E2A76" d="M105.314,54.241c-4.539,0-8.975,0-13.529,0
			c0.151-0.865,0.286-1.645,0.423-2.429c11.233,0,22.398,0,33.671,0c-0.143,0.808-0.275,1.566-0.42,2.393c-4.516,0-9.006,0-13.583,0
			c-1.785,10.11-3.561,20.164-5.337,30.227c-2.188,0-4.301,0-6.543,0C101.769,74.363,103.534,64.344,105.314,54.241z"/>
		<path fill-rule="evenodd" clip-rule="evenodd" fill="#B5131C" d="M233.726,11.895c0-4.876,3.901-8.791,8.766-8.794
			c4.84-0.004,8.789,3.937,8.806,8.788c0.017,4.858-3.961,8.793-8.878,8.782C237.604,20.66,233.725,16.746,233.726,11.895z"/>
		<path fill-rule="evenodd" clip-rule="evenodd" fill="#B5141C" d="M217.377,0.332c4.519-0.139,8.347,3.581,8.471,8.226
			c0.119,4.506-3.543,8.4-8.007,8.516c-4.703,0.122-8.591-3.406-8.743-7.934C208.935,4.292,212.518,0.479,217.377,0.332z"/>
		<path fill-rule="evenodd" clip-rule="evenodd" fill="#B5141D" d="M199.752,8.023c-0.027,3.915-3.288,7.14-7.188,7.11
			c-3.928-0.03-7.13-3.251-7.132-7.171c-0.002-3.956,3.23-7.139,7.231-7.121C196.594,0.859,199.78,4.088,199.752,8.023z"/>
		<path fill-rule="evenodd" clip-rule="evenodd" fill="#B5141D" d="M175.948,8.742c-0.01,3.549-2.913,6.419-6.47,6.397
			c-3.504-0.022-6.377-2.906-6.392-6.418c-0.016-3.566,2.896-6.427,6.529-6.416C173.124,2.318,175.96,5.199,175.948,8.742z"/>
		<path fill-rule="evenodd" clip-rule="evenodd" fill="#B5141D" d="M143.075,11.275c0-3.041,2.404-5.426,5.446-5.404
			c2.978,0.022,5.368,2.451,5.353,5.438c-0.015,2.975-2.435,5.368-5.427,5.367C145.46,16.677,143.075,14.278,143.075,11.275z"/>
		<path fill-rule="evenodd" clip-rule="evenodd" fill="#B5151E" d="M130.064,10.097c2.672-0.02,4.849,2.156,4.839,4.839
			c-0.009,2.619-2.185,4.769-4.833,4.777c-2.641,0.007-4.807-2.131-4.833-4.771C125.21,12.265,127.35,10.117,130.064,10.097z"/>
		<path fill-rule="evenodd" clip-rule="evenodd" fill="#B5151E" d="M113.215,15.94c2.104-0.003,3.774,1.682,3.76,3.793
			c-0.014,2.054-1.699,3.729-3.756,3.735c-2.079,0.006-3.754-1.697-3.746-3.808C109.482,17.583,111.132,15.943,113.215,15.94z"/>
		<path fill-rule="evenodd" clip-rule="evenodd" fill="#B6161F" d="M98.771,27.535c-1.494,0.013-2.707-1.179-2.71-2.663
			c-0.003-1.503,1.172-2.685,2.677-2.691c1.5-0.006,2.708,1.177,2.717,2.66C101.464,26.324,100.27,27.521,98.771,27.535z"/>
		<path fill-rule="evenodd" clip-rule="evenodd" fill="#B71922" d="M84.304,30.752c0.014-0.976,0.782-1.732,1.759-1.733
			c1.008,0,1.782,0.791,1.764,1.805c-0.017,0.965-0.8,1.744-1.758,1.746C85.075,32.573,84.29,31.764,84.304,30.752z"/>
	</g>
</g>
</svg>